<?xml version="1.0" encoding="utf-8"?>
<!-- Generator: Adobe Illustrator 25.4.1, SVG Export Plug-In . SVG Version: 6.00 Build 0)  -->
<svg version="1.1" xmlns="http://www.w3.org/2000/svg" xmlns:xlink="http://www.w3.org/1999/xlink" x="0px" y="0px"
	 viewBox="0 0 1538.08 408.22" style="enable-background:new 0 0 1538.08 408.22;" xml:space="preserve">
<style type="text/css">
	.st0{fill:#E1351F;}
</style>
<g id="VIDEOS">
	<g>
		<path d="M474.45,258.31L520.48,82.6h61.62l-78.91,242.26H445.7L367.36,82.6h61.25L474.45,258.31z"/>
		<path d="M655.9,324.86h-55.24V82.6h55.24V324.86z"/>
		<path d="M692.68,324.86V82.6h72.33c31.94,0,57.4,8.98,76.37,26.96c18.97,17.97,28.65,42.6,29.03,73.88v39.27
			c0,31.84-9.49,56.82-28.46,74.96c-18.97,18.14-45.12,27.21-78.44,27.21H692.68z M747.92,123.37v160.9h16.53
			c18.41,0,31.38-4.3,38.89-12.9c7.51-8.59,11.46-23.43,11.84-44.51v-42.1c0-22.63-3.57-38.41-10.71-47.34
			c-7.14-8.93-19.29-13.62-36.45-14.06H747.92z"/>
		<path d="M1041.72,220.04h-86.05v64.23h101.83v40.6H900.44V82.6h156.69v40.77H955.67v57.24h86.05V220.04z"/>
		<path d="M1272.21,225.53c0,32.5-8.67,57.74-26.02,75.71c-17.35,17.97-41.43,26.96-72.24,26.96c-30.69,0-54.8-8.9-72.33-26.71
			c-17.54-17.8-26.43-42.73-26.68-74.79v-41.43c0-33.28,8.7-59.26,26.12-77.95c17.41-18.69,41.58-28.04,72.52-28.04
			c30.44,0,54.42,9.18,71.96,27.54c17.53,18.36,26.43,44.12,26.68,77.29V225.53z M1216.78,184.93c0-21.85-3.51-38.1-10.52-48.75
			c-7.02-10.65-17.91-15.97-32.69-15.97c-14.65,0-25.49,5.13-32.5,15.39c-7.02,10.26-10.65,25.87-10.9,46.84v43.09
			c0,21.19,3.57,36.8,10.71,46.84c7.14,10.04,18.16,15.06,33.07,15.06c14.4,0,25.11-4.91,32.13-14.73
			c7.01-9.82,10.58-25.04,10.71-45.67V184.93z"/>
		<path d="M1417.77,261.3c0-9.87-2.85-17.33-8.55-22.38c-5.7-5.05-16.06-10.29-31.09-15.72c-27.43-9.21-47.16-19.99-59.18-32.36
			c-12.02-12.37-18.04-26.98-18.04-43.84c0-20.41,8.17-36.8,24.52-49.17c16.34-12.37,37.11-18.55,62.28-18.55
			c16.78,0,31.75,3.14,44.9,9.4c13.15,6.27,23.26,15.12,30.34,26.54c7.08,11.43,10.62,24.4,10.62,38.94h-55.05
			c0-11.31-2.72-19.94-8.17-25.87c-5.45-5.93-13.31-8.9-23.58-8.9c-9.65,0-17.16,2.52-22.54,7.57c-5.39,5.05-8.08,11.84-8.08,20.38
			c0,6.66,3.01,12.67,9.02,18.05c6.01,5.38,16.66,10.96,31.94,16.72c26.68,8.54,46.06,19.03,58.15,31.45
			c12.08,12.42,18.13,28.23,18.13,47.42c0,21.08-7.58,37.55-22.73,49.42c-15.16,11.87-35.76,17.8-61.81,17.8
			c-17.66,0-33.76-3.22-48.28-9.65c-14.53-6.43-25.9-15.64-34.1-27.62c-8.21-11.98-12.31-26.12-12.31-42.43h55.42
			c0,13.98,3.07,24.13,9.21,30.45c6.14,6.32,16.16,9.48,30.06,9.48C1408.13,288.42,1417.77,279.39,1417.77,261.3z"/>
	</g>
</g>
<g id="X">
	<polygon class="st0" points="363.41,51.53 284.48,51.53 236.59,118.25 261.69,174.39 	"/>
	<polygon class="st0" points="250.46,356.38 334.02,356.38 255.08,214.36 211.49,274.14 	"/>
	<polygon class="st0" points="181.43,51.53 247.49,191.24 128.59,356.38 48.99,356.38 177.78,193.46 98.53,51.53 	"/>
</g>
</svg>
